<?xml version="1.0" encoding="UTF-8"?>
<svg id="Layer_1" data-name="Layer 1" xmlns="http://www.w3.org/2000/svg" version="1.1" viewBox="0 0 24 24">
  <defs>
    <style>
      .cls-1 {
        fill: #000;
        stroke-width: 0px;
      }
    </style>
  </defs>
  <path class="cls-1" d="M1,20v-2.8c0-.6.1-1.1.4-1.6.3-.5.7-.8,1.2-1.1,1-.5,2.1-.9,3.2-1.2s2.2-.4,3.2-.4,2.2.1,3.2.4,2.1.6,3.1,1.2c.5.2.9.6,1.2,1.1.3.5.4,1,.4,1.6v2.8H1ZM19,20v-3c0-.7-.2-1.4-.6-2.1s-1-1.2-1.7-1.7c.9.1,1.6.3,2.4.5s1.5.5,2.1.9c.6.3,1.1.7,1.4,1.1.3.4.5.8.5,1.3v3h-4ZM9,12c-1.1,0-2-.4-2.8-1.2s-1.2-1.7-1.2-2.8.4-2,1.2-2.8,1.7-1.2,2.8-1.2,2,.4,2.8,1.2,1.2,1.7,1.2,2.8-.4,2-1.2,2.8-1.7,1.2-2.8,1.2ZM19,8c0,1.1-.4,2-1.2,2.8-.8.8-1.7,1.2-2.8,1.2s-.4,0-.7,0-.5,0-.7-.1c.4-.5.8-1.1,1-1.8s.4-1.3.4-2-.1-1.4-.4-2-.6-1.2-1-1.8c.2,0,.5-.1.7-.2s.5,0,.7,0c1.1,0,2,.4,2.8,1.2s1.2,1.7,1.2,2.8Z"/>
</svg>