<?xml version="1.0" encoding="UTF-8"?>
<svg id="Layer_1" data-name="Layer 1" xmlns="http://www.w3.org/2000/svg" version="1.1" viewBox="0 0 24 24">
  <defs>
    <style>
      .cls-1 {
        fill: #000;
        stroke-width: 0px;
      }
    </style>
  </defs>
  <path class="cls-1" d="M0,18v-1.6c0-.7.4-1.3,1.1-1.8s1.7-.7,2.9-.7.4,0,.6,0,.4,0,.6,0c-.2.4-.4.7-.5,1.1s-.2.8-.2,1.2v1.6H0ZM6,18v-1.6c0-.5.2-1,.4-1.5s.7-.8,1.2-1.2c.5-.3,1.2-.6,1.9-.8s1.6-.2,2.4-.2,1.7,0,2.4.2,1.4.4,1.9.8c.5.3.9.7,1.2,1.2s.4.9.4,1.5v1.6H6ZM19.5,18v-1.6c0-.4,0-.8-.2-1.2s-.3-.7-.5-1.1c.2,0,.4,0,.6,0s.4,0,.6,0c1.2,0,2.2.2,2.9.7s1.1,1,1.1,1.8v1.6h-4.5ZM4,13c-.5,0-1-.2-1.4-.6s-.6-.9-.6-1.4.2-1,.6-1.4.9-.6,1.4-.6,1,.2,1.4.6.6.9.6,1.4-.2,1-.6,1.4-.9.6-1.4.6ZM20,13c-.5,0-1-.2-1.4-.6s-.6-.9-.6-1.4.2-1,.6-1.4.9-.6,1.4-.6,1,.2,1.4.6.6.9.6,1.4-.2,1-.6,1.4-.9.6-1.4.6ZM12,12c-.8,0-1.5-.3-2.1-.9s-.9-1.3-.9-2.1.3-1.6.9-2.1,1.3-.9,2.1-.9,1.6.3,2.1.9.9,1.3.9,2.1-.3,1.5-.9,2.1c-.6.6-1.3.9-2.1.9Z"/>
</svg>