<svg width="22" height="19" viewBox="0 0 22 19" fill="none" xmlns="http://www.w3.org/2000/svg">
<path d="M18.2656 18.9531L9.78906 18.9434C9.40495 18.9434 9.04036 18.901 8.69531 18.8164C8.35677 18.7383 8.03125 18.6113 7.71875 18.4355C7.41276 18.2598 7.1263 18.0319 6.85938 17.752L1.09766 11.8047C0.778646 11.4727 0.544271 11.1569 0.394531 10.8574C0.244792 10.5514 0.169922 10.2487 0.169922 9.94922C0.169922 9.74089 0.202474 9.53906 0.267578 9.34375C0.332682 9.14193 0.433594 8.93685 0.570312 8.72852C0.707031 8.52018 0.882812 8.30859 1.09766 8.09375L6.84961 2.11719C7.11654 1.83724 7.40299 1.61263 7.70898 1.44336C8.02148 1.27409 8.34701 1.15365 8.68555 1.08203C9.0306 1.01042 9.39518 0.974609 9.7793 0.974609H18.2656C19.2878 0.974609 20.0527 1.22852 20.5605 1.73633C21.0749 2.23763 21.332 2.99284 21.332 4.00195V15.9258C21.332 16.9349 21.0749 17.6901 20.5605 18.1914C20.0527 18.6992 19.2878 18.9531 18.2656 18.9531ZM18.2461 17.3809C18.7344 17.3809 19.1087 17.2539 19.3691 17C19.6296 16.7396 19.7598 16.3555 19.7598 15.8477V4.08008C19.7598 3.57227 19.6296 3.19141 19.3691 2.9375C19.1087 2.67708 18.7344 2.54688 18.2461 2.54688H9.75C9.38542 2.54688 9.06966 2.58919 8.80273 2.67383C8.54232 2.75846 8.28516 2.93099 8.03125 3.19141L2.31836 9.11914C2.0319 9.43164 1.88867 9.70833 1.88867 9.94922C1.88867 10.0729 1.91797 10.1999 1.97656 10.3301C2.04167 10.4538 2.1556 10.6003 2.31836 10.7695L8.04102 16.6777C8.29492 16.9382 8.55208 17.1204 8.8125 17.2246C9.07292 17.3288 9.38867 17.3809 9.75977 17.3809H18.2461ZM9.21289 14.0898C8.99805 14.0898 8.8125 14.0117 8.65625 13.8555C8.50651 13.6992 8.43164 13.5137 8.43164 13.2988C8.43164 13.084 8.50977 12.9017 8.66602 12.752L11.4395 9.96875L8.66602 7.18555C8.50977 7.03581 8.43164 6.85352 8.43164 6.63867C8.43164 6.42383 8.50651 6.24154 8.65625 6.0918C8.8125 5.94206 8.99805 5.86719 9.21289 5.86719C9.43424 5.86719 9.61654 5.94531 9.75977 6.10156L12.543 8.875L15.3555 6.0918C15.5117 5.92904 15.6908 5.84766 15.8926 5.84766C16.1074 5.84766 16.2897 5.92578 16.4395 6.08203C16.5957 6.23177 16.6738 6.41406 16.6738 6.62891C16.6738 6.83724 16.5957 7.01953 16.4395 7.17578L13.6562 9.96875L16.4297 12.7422C16.5859 12.8984 16.6641 13.084 16.6641 13.2988C16.6641 13.5137 16.5859 13.6992 16.4297 13.8555C16.2799 14.0117 16.0977 14.0898 15.8828 14.0898C15.668 14.0898 15.4824 14.0085 15.3262 13.8457L12.543 11.0723L9.7793 13.8457C9.62956 14.0085 9.44076 14.0898 9.21289 14.0898Z" fill="black"/>
</svg>
