<?xml version="1.0" encoding="UTF-8"?>
<svg id="Layer_1" data-name="Layer 1" xmlns="http://www.w3.org/2000/svg" viewBox="0 0 24 24">
  <defs>
    <style>
      .cls-1 {
        fill: #484647;
        stroke-width: 0px;
      }
    </style>
  </defs>
  <path class="cls-1" d="M17,22c-.83,0-1.54-.29-2.13-.88-.58-.58-.88-1.29-.88-2.13,0-.1.03-.33.08-.7l-7.03-4.1c-.27.25-.58.45-.93.59s-.73.21-1.13.21c-.83,0-1.54-.29-2.13-.88-.58-.58-.88-1.29-.88-2.13s.29-1.54.88-2.13c.58-.58,1.29-.88,2.13-.88.4,0,.78.07,1.13.21s.66.34.93.59l7.03-4.1c-.03-.12-.05-.23-.06-.34s-.01-.23-.01-.36c0-.83.29-1.54.88-2.13s1.29-.88,2.13-.88,1.54.29,2.13.88.88,1.29.88,2.13-.29,1.54-.88,2.13-1.29.88-2.13.88c-.4,0-.78-.07-1.13-.21s-.66-.34-.93-.59l-7.03,4.1c.03.12.05.23.06.34s.01.23.01.36,0,.25-.01.36-.03.22-.06.34l7.03,4.1c.27-.25.58-.45.93-.59s.73-.21,1.13-.21c.83,0,1.54.29,2.13.88s.88,1.29.88,2.13-.29,1.54-.88,2.13c-.58.58-1.29.88-2.13.88ZM17,20c.28,0,.52-.1.71-.29s.29-.43.29-.71-.1-.52-.29-.71-.43-.29-.71-.29-.52.1-.71.29-.29.43-.29.71.1.52.29.71.43.29.71.29ZM5,13c.28,0,.52-.1.71-.29s.29-.43.29-.71-.1-.52-.29-.71c-.19-.19-.43-.29-.71-.29s-.52.1-.71.29c-.19.19-.29.43-.29.71s.1.52.29.71.43.29.71.29ZM17,6c.28,0,.52-.1.71-.29s.29-.43.29-.71-.1-.52-.29-.71-.43-.29-.71-.29-.52.1-.71.29-.29.43-.29.71.1.52.29.71.43.29.71.29Z"/>
</svg>