<?xml version="1.0" encoding="UTF-8"?>
<svg id="Layer_1" data-name="Layer 1" xmlns="http://www.w3.org/2000/svg" viewBox="0 0 100 100">
  <defs>
    <style>
      .cls-1 {
        fill: #ccaa3e;
        stroke: #ccaa3e;
      }

      .cls-1, .cls-2, .cls-3, .cls-4 {
        stroke-miterlimit: 10;
        stroke-width: .5px;
      }

      .cls-2 {
        fill: #606060;
      }

      .cls-2, .cls-3 {
        stroke: #3a3a3a;
      }

      .cls-3 {
        fill: #3a3a3a;
      }

      .cls-4 {
        fill: #f7da31;
        stroke: #f7da31;
      }
    </style>
  </defs>
  <path id="Seat" class="cls-4" d="M52.55,1.21l-4.29,4.29,6,6,5-5-5.29-5.29c-.39-.39-1.02-.39-1.41,0h0Z"/>
  <path id="Body" class="cls-4" d="M64.6,8.99l-25.1,23.17s-6.59-5.34-7.9-7.3c-.07-.1-.04-.23.04-.31L55.9.75c.35-.34.89-.37,1.28-.09l7.34,6.79c.51.37.55,1.12.09,1.54h-.01Z"/>
  <path id="Seat_Back" data-name="Seat Back" class="cls-1" d="M59.59,9.37l1.37-1.37c.2-.2.54-.06.54.22v.23l-2,2v-.87c0-.08.03-.16.09-.22h0Z"/>
  <path id="Seat-2" class="cls-1" d="M59.5,10.47l-5.83,5.83c-.06.06-.17.02-.17-.07v-5.4c0-.23.09-.45.25-.61l4.29-4.29c.54-.54,1.46-.16,1.46.61v3.93Z"/>
  <path id="Ram_Front" data-name="Ram Front" class="cls-1" d="M31.79,38.1l-8.99,8.99c-.19.19-.29.44-.29.71v8.17c0,.27.11.52.29.71l6.65,6.65c.5.5,1.36.34,1.64-.32l8.16-15.9c.16-.37,1.55-1.33,1.26-1.62l-7.29-7.39c-.39-.4-1.03-.4-1.42,0h0Z"/>
  <path id="Ram" class="cls-1" d="M39.21,32.41l-7.67-7.67s-.04,0-.04.02v13.6c0,.22.09.43.26.58l7.63,6.67.11-.05v-12.44c0-.27-.11-.52-.29-.71Z"/>
  <path id="Head" class="cls-3" d="M38,37.96c0,1.22-.49,2.4-1.37,3.25l-2.88,2.68c-2.99,2.69-7.75.57-7.75-3.45h0c0-1.32.56-2.57,1.54-3.45l2.78-2.33c2.9-2.75,7.68-.69,7.68,3.3h0Z"/>
  <path class="cls-3" d="M38.5,22.88h0c-.55,0-1-.45-1-1v-3h2v3c0,.55-.45,1-1,1Z"/>
  <rect id="Exhaust_Tip" data-name="Exhaust Tip" class="cls-3" x="37" y="16.88" width="3" height="2" rx=".69" ry=".69"/>
  <path id="Ram-2" class="cls-4" d="M29.79,56.08l13.71-13.71v9l-12.29,12.29c-.63.63-1.71.18-1.71-.71v-6.17c0-.27.11-.52.29-.71h0Z"/>
  <path id="Body-2" class="cls-4" d="M39.79,32.08l24-24c.63-.63,1.71-.18,1.71.71v14.16c0,.27-.11.52-.29.71l-24,24c-.63.63-1.71.18-1.71-.71v-14.16c0-.27.11-.52.29-.71Z"/>
  <path id="Body_Line" data-name="Body Line" class="cls-3" d="M39.79,46.08l23.99-23.99c.63-.63,1.71-.18,1.71.71v6.16c0,.27-.11.52-.29.71l-23.99,23.99c-.63.63-1.71.18-1.71-.71v-6.16c0-.27.11-.52.29-.71Z"/>
  <ellipse id="Wheel_1" data-name="Wheel 1" class="cls-2" cx="60" cy="33.38" rx="3.25" ry="6.5"/>
  <ellipse id="Wheel_2" data-name="Wheel 2" class="cls-2" cx="50" cy="43.5" rx="3" ry="6.5"/>
  <ellipse id="Wheel_3" data-name="Wheel 3" class="cls-2" cx="40" cy="53.37" rx="3.25" ry="6.5"/>
  <path id="Seat-3" class="cls-1" d="M47.5,10.47l5.83,5.83c.06.06.17.02.17-.07v-5.4c0-.23-.09-.45-.25-.61l-4.29-4.29c-.54-.54-1.46-.16-1.46.61v3.93Z"/>
</svg>