<?xml version="1.0" encoding="UTF-8"?>
<svg id="Rails_2" data-name="Rails 2" xmlns="http://www.w3.org/2000/svg" xmlns:xlink="http://www.w3.org/1999/xlink" viewBox="0 0 500 500">
  <defs>
    <style>
      .cls-1, .cls-2 {
        fill: none;
      }

      .cls-1, .cls-3 {
        stroke: #cec8c0;
        stroke-miterlimit: 10;
        stroke-width: 3px;
      }

      .cls-2 {
        stroke-width: 0px;
      }

      .cls-4 {
        clip-path: url(#clippath);
      }

      .cls-3 {
        fill: #ebece6;
      }
    </style>
    <clipPath id="clippath">
      <rect class="cls-2" width="500" height="500"/>
    </clipPath>
  </defs>
  <g class="cls-4">
    <polyline class="cls-1" points="0 127.5 19.5 127.5 52 160"/>
    <path class="cls-1" d="M76.12,411.12l74.38-74.38h233.75l89.75,89.5v74.75M209.53,336.74l-54.74-54.74v-90.27s-50.29-49.23-64.23-64.23M146.5,474.97h87.47l59.82-59.82v-34.61l-43.8-43.8M182.5,429.5h96.94M0,282.33h52.22l38.33-38.33V59.44L58.11,27H0M500,380.67h-22.33l-83.67-83.67h-129l-46.5-46.5v-92l51.5-51.5M90.56,59.44c7.44,8.56,48.3,47.56,48.3,47.56h131.15l172.66-.12,31.34-31.34v-22.26M381.07,297.3l65.18-65.18v-50.87l56-56M500,282h-103.63M446.25,181.25h-90.36l-26.32,26.32M503.5,23.5l-29.78,29.78M474,53.28V0"/>
    <polyline class="cls-1" points="0 380 25.52 380 66.26 339.26"/>
    <ellipse class="cls-3" cx="329.89" cy="207.67" rx="5.02" ry="5.01"/>
    <ellipse class="cls-3" cx="283.89" cy="297.67" rx="5.02" ry="5.01"/>
    <ellipse class="cls-3" cx="293.89" cy="396.67" rx="5.02" ry="5.01"/>
    <ellipse class="cls-3" cx="182.89" cy="429" rx="5.02" ry="5.01"/>
    <ellipse class="cls-3" cx="149.89" cy="475" rx="5.02" ry="5.01"/>
    <ellipse class="cls-3" cx="75.89" cy="413" rx="5.02" ry="5.01"/>
    <ellipse class="cls-3" cx="154.56" cy="227.04" rx="5.02" ry="5.01"/>
    <ellipse class="cls-3" cx="152.89" cy="106.56" rx="5.02" ry="5.01"/>
    <ellipse class="cls-3" cx="51.89" cy="159.56" rx="5.02" ry="5.01"/>
    <ellipse class="cls-3" cx="443.15" cy="396.04" rx="5.02" ry="5.01"/>
    <ellipse class="cls-3" cx="367.44" cy="106.59" rx="5.02" ry="5.01"/>
    <ellipse class="cls-3" cx="463.89" cy="281.7" rx="5.02" ry="5.01"/>
    <ellipse class="cls-3" cx="65.5" cy="340" rx="5.02" ry="5.01"/>
  </g>
</svg>