<svg xmlns="http://www.w3.org/2000/svg" width="186" height="186"><path d="M165.3 185.6H24.6c-13.5 0-24.5-11-24.5-24.5V24.5C.1 11 11.1 0 24.6 0h136.6c13.5 0 24.5 11 24.5 24.5v140.7c0 11.4-9.2 20.4-20.4 20.4h0 0z" fill="#fff"/><path d="M154.6 171.9H31.2c-9.6 0-17.4-7.8-17.4-17.4V31.1c0-9.6 7.8-17.4 17.4-17.4h123.4c9.6 0 17.4 7.8 17.4 17.4v123.4c0 9.7-7.8 17.4-17.4 17.4z" fill="#00969f"/><path d="M61 105.9c-4.9-26.9-13-57-13-57H27.1A1.11 1.11 0 0 0 26 50v73c0 .6.5 1 1 1h11.9c.6 0 1-.5 1-1V79l-.8-15.8 14.4 60.9h14.9l14.4-60.9L82 79v44c0 .6.5 1 1 1h11.9c.6 0 1-.5 1-1V50a1.11 1.11 0 0 0-1.1-1.1H74.1S66 80 61 105.9zm100.7 3.2H147V49h-11.3L111 59.5c-.4.2-.6.7-.4 1.1l4.6 12c.2.6.9.8 1.4.6l15.3-6v42h-15.6a1.11 1.11 0 0 0-1.1 1.1v12.6a1.11 1.11 0 0 0 1.1 1.1h45.4a1.11 1.11 0 0 0 1.1-1.1v-12.6c.1-.7-.4-1.2-1.1-1.2z" fill="#fff"/></svg>