<?xml version="1.0" encoding="UTF-8"?>
<svg id="Train" xmlns="http://www.w3.org/2000/svg" viewBox="0 0 100 100">
  <defs>
    <style>
      .cls-1 {
        fill: #606060;
      }

      .cls-1, .cls-2, .cls-3, .cls-4, .cls-5, .cls-6 {
        stroke-miterlimit: 10;
        stroke-width: .5px;
      }

      .cls-1, .cls-4 {
        stroke: #3a3a3a;
      }

      .cls-2 {
        fill: #1e1e1e;
        stroke: #1e1e1e;
      }

      .cls-3 {
        fill: #ef3f3f;
        stroke: #ef3f3f;
      }

      .cls-4 {
        fill: #3a3a3a;
      }

      .cls-5 {
        fill: #9b2929;
        stroke: #9b2929;
      }

      .cls-6 {
        fill: #bc3737;
        stroke: #bc3737;
      }
    </style>
  </defs>
  <rect id="Shadow" class="cls-5" x="73.5" y="14.75" width="8" height="6" rx="1" ry="1" transform="translate(155 35.5) rotate(-180)"/>
  <rect id="Seat_Shadow" data-name="Seat Shadow" class="cls-5" x="62.5" y="11.75" width="12" height="9" rx="1" ry="1" transform="translate(137 32.5) rotate(-180)"/>
  <rect id="Ram_Shadow" data-name="Ram Shadow" class="cls-6" x="13" y="34.25" width="16.5" height="7" rx="1" ry="1" transform="translate(42.5 75.5) rotate(-180)"/>
  <rect id="Head_Shadow" data-name="Head Shadow" class="cls-2" x="16.5" y="21.75" width="13" height="10.5" rx="1" ry="1" transform="translate(46 54) rotate(-180)"/>
  <rect id="Exhaust_Tip_Shadow" data-name="Exhaust Tip Shadow" class="cls-2" x="36" y="14.25" width="3" height="2.25" rx=".69" ry=".69" transform="translate(75 30.75) rotate(-180)"/>
  <rect id="Body_Shadow" data-name="Body Shadow" class="cls-6" x="29.5" y="19.25" width="54" height="22" rx="1" ry="1" transform="translate(113 60.5) rotate(-180)"/>
  <rect id="Hitch_Shadow" data-name="Hitch Shadow" class="cls-2" x="79.5" y="38.25" width="6" height="3.25" rx="1" ry="1" transform="translate(165 79.75) rotate(-180)"/>
  <rect id="Seat_Back" data-name="Seat Back" class="cls-6" x="73.5" y="16.5" width="8" height="6" rx="1" ry="1" transform="translate(155 39) rotate(-180)"/>
  <rect id="Seat" class="cls-6" x="62.5" y="13.5" width="12" height="9" rx="1" ry="1" transform="translate(137 36) rotate(-180)"/>
  <rect id="Hitch" class="cls-4" x="79.5" y="40" width="6" height="3" rx="1" ry="1" transform="translate(165 83) rotate(-180)"/>
  <rect id="Head-Toe_Con" data-name="Head-Toe Con" class="cls-4" x="26" y="34" width="3" height=".5" transform="translate(55 68.5) rotate(-180)"/>
  <rect id="Ram" class="cls-3" x="13" y="36" width="16.5" height="7" rx="1" ry="1" transform="translate(42.5 79) rotate(-180)"/>
  <rect id="Head" class="cls-4" x="16.5" y="23.5" width="13" height="10.5" rx="1" ry="1" transform="translate(46 57.5) rotate(-180)"/>
  <rect class="cls-4" x="36.5" y="17.5" width="2" height="2" transform="translate(75 37) rotate(-180)"/>
  <rect id="Exhaust_Tip" data-name="Exhaust Tip" class="cls-4" x="36" y="15.5" width="3" height="2" rx=".69" ry=".69" transform="translate(75 33) rotate(-180)"/>
  <path id="Body" class="cls-3" d="M29.5,21h54v13c0,.55-.45,1-1,1H30.5c-.55,0-1-.45-1-1v-13h0Z" transform="translate(113 56) rotate(-180)"/>
  <rect id="Body_Line" data-name="Body Line" class="cls-4" x="29.5" y="34" width="54" height="9" rx="1" ry="1" transform="translate(113 77) rotate(-180)"/>
  <circle id="Wheel_1" data-name="Wheel 1" class="cls-1" cx="70" cy="43" r="6.5"/>
  <circle id="Wheel_2" data-name="Wheel 2" class="cls-1" cx="50" cy="43" r="6.5"/>
  <circle id="Wheel_3" data-name="Wheel 3" class="cls-1" cx="30" cy="43" r="6.5"/>
</svg>