<?xml version="1.0" encoding="UTF-8"?>
<svg id="Layer_1" data-name="Layer 1" xmlns="http://www.w3.org/2000/svg" viewBox="0 0 100 100">
  <defs>
    <style>
      .cls-1 {
        fill: #606060;
      }

      .cls-1, .cls-2, .cls-3, .cls-4, .cls-5 {
        stroke-miterlimit: 10;
        stroke-width: .5px;
      }

      .cls-1, .cls-4 {
        stroke: #3a3a3a;
      }

      .cls-2 {
        fill: #1e1e1e;
        stroke: #1e1e1e;
      }

      .cls-3 {
        fill: #ef3f3f;
        stroke: #ef3f3f;
      }

      .cls-4 {
        fill: #3a3a3a;
      }

      .cls-5 {
        fill: #bc3737;
        stroke: #bc3737;
      }
    </style>
  </defs>
  <path id="Ram_Front" data-name="Ram Front" class="cls-5" d="M37.21,12.16l8.99,7.99c.19.19.29.44.29.71l2,6.17c0,.27-.11.52-.29.71l-6.65,6.65c-.5.5-1.36.34-1.64-.32l-10.42-15.57c-.16-.37.71-1.65,1-1.94l5.29-4.39c.39-.4,1.03-.4,1.42,0Z"/>
  <path id="Ram" class="cls-5" d="M65.79,37.46l7.67-7.67s.04,0,.04.02v14.6c0,.22-.09.43-.26.58l-7.63,6.67-.11-.05v-13.44c0-.27.11-.52.29-.71Z"/>
  <path id="Head" class="cls-4" d="M35,14.02c0,1.22.49,2.4,1.37,3.25l2.88,2.68c2.99,2.69,7.75.57,7.75-3.45h0c0-1.32-.56-2.57-1.54-3.45l-2.78-2.33c-2.9-2.75-7.68-.69-7.68,3.3h0Z"/>
  <path id="Ram-2" data-name="Ram" class="cls-3" d="M42.95,29.43l-11.74-11.74c-.63-.63-1.71-.18-1.71.71v6.17c0,.27.11.52.29.71l10.49,10.49c1.19,1.19,3.21.35,3.21-1.33v-3.67c0-.5-.2-.98-.55-1.33Z"/>
  <path id="Body" class="cls-3" d="M65.21,37.14l-24-24c-.63-.63-1.71-.18-1.71.71v14.16c0,.27.11.52.29.71l24,24c.63.63,1.71.18,1.71-.71v-14.16c0-.27-.11-.52-.29-.71Z"/>
  <path id="Body_Line" data-name="Body Line" class="cls-4" d="M65.35,51.28l-24.99-24.99c-.32-.32-.86-.09-.86.36v7.57c0,.13.05.26.15.36l25.49,25.49c.13.13.37.04.37-.15v-8.27c0-.13-.05-.26-.15-.36Z"/>
  <ellipse id="Wheel_1" data-name="Wheel 1" class="cls-1" cx="40" cy="33.43" rx="3.25" ry="6.5"/>
  <ellipse id="Wheel_2" data-name="Wheel 2" class="cls-1" cx="50" cy="43.56" rx="3" ry="6.5"/>
  <ellipse id="Wheel_3" data-name="Wheel 3" class="cls-1" cx="60" cy="53.43" rx="3.25" ry="6.5"/>
  <path id="Body-2" data-name="Body" class="cls-3" d="M40.4,14.05l25.1,23.17s6.59-5.34,7.9-7.3c.07-.1.04-.23-.04-.31L49.1,5.8c-.35-.34-.89-.37-1.28-.09l-7.34,6.79c-.51.37-.55,1.12-.09,1.54Z"/>
  <path id="Seat" class="cls-3" d="M62.45,16.26l4.29,4.29-6,6-5-5,5.29-5.29c.39-.39,1.02-.39,1.41,0Z"/>
  <path id="Seat-2" data-name="Seat" class="cls-5" d="M67.5,24.52l-5.83,5.83c-.06.06-.17.02-.17-.07v-4.4c0-.23.09-.45.25-.61l4.29-4.29c.54-.54,1.46-.16,1.46.61v2.93Z"/>
  <path id="Seat_Back" data-name="Seat Back" class="cls-5" d="M62.09,32.06l1.37,1.37c.2.2.54.06.54-.22v-.23s-2.5-2.47-2.5-2.47h-1c0,.08,1.53,1.5,1.59,1.56Z"/>
  <path id="Seat-3" data-name="Seat" class="cls-5" d="M55.5,25.52l5.83,5.83c.06.06.17.02.17-.07v-5.4c0-.23-.09-.45-.25-.61l-4.29-4.29c-.54-.54-1.46-.16-1.46.61v3.93Z"/>
  <path class="cls-4" d="M48.5,9.93h2v3c0,.55-.45,1-1,1h0c-.55,0-1-.45-1-1v-3h0Z"/>
  <rect id="Exhaust_Tip" data-name="Exhaust Tip" class="cls-4" x="48" y="7.93" width="3" height="2" rx=".69" ry=".69"/>
  <path id="Seat_Back-2" data-name="Seat Back" class="cls-5" d="M65.39,31.94l4.87-4.87c.2-.2.06-.54-.22-.54h-.23l-5.97,6v1c.08,0,1.5-1.53,1.56-1.59Z"/>
  <path id="Body_Line-2" data-name="Body Line" class="cls-4" d="M73.5,52.5l-7.53,7.53c-.17.17-.47.05-.47-.2v-8.22c0-.07.03-.14.08-.2l7.92-7.92v9Z"/>
  <path class="cls-4" d="M66,59.75c0,.28-.22.5-.5.5s-.5-.22-.5-.5-.03-4.5.25-4.5.75,4.22.75,4.5Z"/>
  <path id="Body_Line-3" data-name="Body Line" class="cls-2" d="M70.75,54.07l-.44.44c-.32.32-.87.09-.87-.36v-.19c0-.14.05-.27.15-.36l.44-.44c.32-.32.87-.09.87.36v.19c0,.14-.05.27-.15.36Z"/>
</svg>