<?xml version="1.0" encoding="UTF-8"?>
<svg id="Train" xmlns="http://www.w3.org/2000/svg" viewBox="0 0 73 36.5">
  <defs>
    <style>
      .cls-1 {
        fill: #606060;
      }

      .cls-1, .cls-2, .cls-3, .cls-4 {
        stroke-miterlimit: 10;
        stroke-width: .5px;
      }

      .cls-1, .cls-3 {
        stroke: #3a3a3a;
      }

      .cls-2 {
        fill: #ef3f3f;
        stroke: #ef3f3f;
      }

      .cls-3 {
        fill: #3a3a3a;
      }

      .cls-4 {
        fill: #bc3737;
        stroke: #bc3737;
      }
    </style>
  </defs>
  <rect id="Seat_Back" data-name="Seat Back" class="cls-4" x="60.75" y="3.25" width="8" height="6" rx="1" ry="1" transform="translate(129.5 12.5) rotate(-180)"/>
  <rect id="Seat" class="cls-4" x="49.75" y=".25" width="12" height="9" rx="1" ry="1" transform="translate(111.5 9.5) rotate(-180)"/>
  <rect id="Hitch" class="cls-3" x="66.75" y="26.75" width="6" height="3" rx="1" ry="1" transform="translate(139.5 56.5) rotate(-180)"/>
  <rect id="Head-Toe_Con" data-name="Head-Toe Con" class="cls-3" x="12.75" y="20.75" width="3" height="2" transform="translate(28.5 43.5) rotate(-180)"/>
  <rect id="Ram" class="cls-2" x=".25" y="22.75" width="16.5" height="7" rx="1" ry="1" transform="translate(17 52.5) rotate(-180)"/>
  <rect id="Head" class="cls-3" x="3.75" y="10.25" width="13" height="10.5" rx="1" ry="1" transform="translate(20.5 31) rotate(-180)"/>
  <rect class="cls-3" x="23.75" y="4.25" width="2" height="4" transform="translate(49.5 12.5) rotate(-180)"/>
  <rect id="Exhaust_Tip" data-name="Exhaust Tip" class="cls-3" x="23.25" y="2.25" width="3" height="2" rx=".69" ry=".69" transform="translate(49.5 6.5) rotate(-180)"/>
  <rect id="Body" class="cls-2" x="15.25" y="7.75" width="54" height="22" rx="1" ry="1" transform="translate(84.5 37.5) rotate(-180)"/>
  <rect id="Body_Line" data-name="Body Line" class="cls-3" x="15.25" y="20.75" width="54" height="9" rx="1" ry="1" transform="translate(84.5 50.5) rotate(-180)"/>
  <circle id="Wheel_1" data-name="Wheel 1" class="cls-1" cx="57.25" cy="29.75" r="6.5"/>
  <circle id="Wheel_2" data-name="Wheel 2" class="cls-1" cx="37.25" cy="29.75" r="6.5"/>
  <circle id="Wheel_3" data-name="Wheel 3" class="cls-1" cx="17.25" cy="29.75" r="6.5"/>
</svg>