<?xml version="1.0" encoding="UTF-8"?>
<svg id="Layer_1" data-name="Layer 1" xmlns="http://www.w3.org/2000/svg" viewBox="0 0 100 100">
  <defs>
    <style>
      .cls-1 {
        fill: #606060;
      }

      .cls-1, .cls-2, .cls-3, .cls-4 {
        stroke-miterlimit: 10;
        stroke-width: .5px;
      }

      .cls-1, .cls-3 {
        stroke: #3a3a3a;
      }

      .cls-2 {
        fill: #ef3f3f;
        stroke: #ef3f3f;
      }

      .cls-3 {
        fill: #3a3a3a;
      }

      .cls-4 {
        fill: #bc3737;
        stroke: #bc3737;
      }
    </style>
  </defs>
  <path id="Seat" class="cls-2" d="M47.45,1.21l4.29,4.29-6,6-5-5,5.29-5.29c.39-.39,1.02-.39,1.41,0Z"/>
  <path id="Body" class="cls-2" d="M35.4,8.99l25.1,23.17s6.59-5.34,7.9-7.3c.07-.1.04-.23-.04-.31L44.1.75c-.35-.34-.89-.37-1.28-.09l-7.34,6.79c-.51.37-.55,1.12-.09,1.54Z"/>
  <path id="Seat_Back" data-name="Seat Back" class="cls-4" d="M40.41,9.37l-1.37-1.37c-.2-.2-.54-.06-.54.22v.23s2,2,2,2v-.87c0-.08-.03-.16-.09-.22Z"/>
  <path id="Seat-2" data-name="Seat" class="cls-4" d="M40.5,10.47l5.83,5.83c.06.06.17.02.17-.07v-5.4c0-.23-.09-.45-.25-.61l-4.29-4.29c-.54-.54-1.46-.16-1.46.61v3.93Z"/>
  <path id="Ram_Front" data-name="Ram Front" class="cls-4" d="M68.21,38.1l8.99,8.99c.19.19.29.44.29.71v8.17c0,.27-.11.52-.29.71l-6.65,6.65c-.5.5-1.36.34-1.64-.32l-8.16-15.9c-.16-.37-1.55-1.33-1.26-1.62l7.29-7.39c.39-.4,1.03-.4,1.42,0Z"/>
  <path id="Ram" class="cls-4" d="M60.79,32.41l7.67-7.67s.04,0,.04.02v13.6c0,.22-.09.43-.26.58l-7.63,6.67-.11-.05v-12.44c0-.27.11-.52.29-.71Z"/>
  <path id="Head" class="cls-3" d="M62,37.96c0,1.22.49,2.4,1.37,3.25l2.88,2.68c2.99,2.69,7.75.57,7.75-3.45h0c0-1.32-.56-2.57-1.54-3.45l-2.78-2.33c-2.9-2.75-7.68-.69-7.68,3.3h0Z"/>
  <path class="cls-3" d="M60.5,18.87h2v3c0,.55-.45,1-1,1h0c-.55,0-1-.45-1-1v-3h0Z"/>
  <rect id="Exhaust_Tip" data-name="Exhaust Tip" class="cls-3" x="60" y="16.87" width="3" height="2" rx=".69" ry=".69"/>
  <path id="Ram-2" data-name="Ram" class="cls-2" d="M70.21,56.08l-13.71-13.71v9s12.29,12.29,12.29,12.29c.63.63,1.71.18,1.71-.71v-6.17c0-.27-.11-.52-.29-.71Z"/>
  <path id="Body-2" data-name="Body" class="cls-2" d="M60.21,32.08l-24-24c-.63-.63-1.71-.18-1.71.71v14.16c0,.27.11.52.29.71l24,24c.63.63,1.71.18,1.71-.71v-14.16c0-.27-.11-.52-.29-.71Z"/>
  <path id="Body_Line" data-name="Body Line" class="cls-3" d="M60.21,46.08l-23.99-23.99c-.63-.63-1.71-.18-1.71.71v6.16c0,.27.11.52.29.71l23.99,23.99c.63.63,1.71.18,1.71-.71v-6.16c0-.27-.11-.52-.29-.71Z"/>
  <ellipse id="Wheel_1" data-name="Wheel 1" class="cls-1" cx="40" cy="33.37" rx="3.25" ry="6.5"/>
  <ellipse id="Wheel_2" data-name="Wheel 2" class="cls-1" cx="50" cy="43.5" rx="3" ry="6.5"/>
  <ellipse id="Wheel_3" data-name="Wheel 3" class="cls-1" cx="60" cy="53.37" rx="3.25" ry="6.5"/>
  <path id="Seat-3" data-name="Seat" class="cls-4" d="M52.5,10.47l-5.83,5.83c-.06.06-.17.02-.17-.07v-5.4c0-.23.09-.45.25-.61l4.29-4.29c.54-.54,1.46-.16,1.46.61v3.93Z"/>
</svg>